<?xml version="1.0" encoding="UTF-8" standalone="no"?> 
<svg xmlns="http://www.w3.org/2000/svg" width = "800" height = "1456">
<polygon points="228,600 273,600 273,578 267,578 267,584 234,584 234,578 228,578" style="fill:gray;stroke:black;stroke-width:1" />
<g transform = "rotate(-135 250 578) translate(243,571)" style =" fill:rgb(128,128,128);stroke-width:3;stroke:rgb(0,0,0)">
<rect width = "150" height = "15" />
<rect width ="150" height ="15" transform = "rotate(90 143 7) translate(136,0)"/>
<circle cx="143" cy="7" r="7" stroke=" black " stroke-width="3" fill=" white " /> 
</g>
<circle cx= "250" cy= "578" r= "7" stroke= " black " stroke-width="3" fill=" white " /> 
<g transform = "rotate(-45 250 578) translate(243,571)" style =" fill:rgb(128,128,128);stroke-width:3;stroke:rgb(0,0,0)">
<rect width = "150" height = "15" />
<rect width ="150" height ="15" transform = "rotate(-90 143 7) translate(136,0)"/>
<circle cx="143" cy="7" r="7" stroke=" black " stroke-width="3" fill=" white " /> 
</g>
<circle cx= "250" cy= "578" r= "7" stroke= " black " stroke-width="3" fill=" white " /> 
<polygon points="430,600 470,600 470,580 464,580 464,586 436,586 436,580 430,580" style="fill:gray;stroke:black;stroke-width:1" />
<g transform = "rotate(-135 450 580) translate(443,573)" style =" fill:rgb(128,128,128);stroke-width:3;stroke:rgb(0,0,0)">
<rect width = "100" height = "15" />
<rect width ="100" height ="15" transform = "rotate(90 93 7) translate(86,0)"/>
<circle cx="93" cy="7" r="7" stroke=" black " stroke-width="3" fill=" white " /> 
</g>
<circle cx= "450" cy= "580" r= "7" stroke= " black " stroke-width="3" fill=" white " /> 
<g transform = "rotate(-45 450 580) translate(443,573)" style =" fill:rgb(128,128,128);stroke-width:3;stroke:rgb(0,0,0)">
<rect width = "100" height = "15" />
<rect width ="100" height ="15" transform = "rotate(-90 93 7) translate(86,0)"/>
<circle cx="93" cy="7" r="7" stroke=" black " stroke-width="3" fill=" white " /> 
</g>
<circle cx= "450" cy= "580" r= "7" stroke= " black " stroke-width="3" fill=" white " /> 
</svg>
